<svg class="svg-social-icon fa-stack-1x" xmlns="http://www.w3.org/2000/svg" width="20px" height="20px" viewBox="0 0 16 16">
    <path d="M15.0599999,7.81180848 C15.0599999,11.1920332 11.0192731,12.9879017 7.99999994,16.0026665 C4.98079659,12.9879017 0.939999998,11.1920332 0.939999998,7.81180848 C0.939999998,7.10758048 1.14687314,6.45157868 1.50317795,5.90108913 C1.4225836,5.51293112 1.37785391,5.12968178 1.36657855,4.75613497 C1.35492275,4.37332207 1.37788537,4.00082344 1.42827756,3.64226302 C1.52948069,2.92465435 1.7367726,2.26426202 2.0050656,1.6580893 C2.13956106,1.35493327 2.28996983,1.06487915 2.4539887,0.787717862 C2.53599814,0.649172063 2.62149732,0.513832061 2.71062587,0.382115998 C2.79989401,0.250608983 2.89202376,0.121750243 2.99078405,0 C2.97284666,0.155132262 2.96468062,0.309707002 2.96007414,0.463515127 C2.95574683,0.617253584 2.95637499,0.770225425 2.96133045,0.92201251 C2.97131117,1.22551701 2.99860112,1.5243522 3.04299089,1.81503353 C3.1314215,2.39625684 3.28985674,2.9459798 3.51627256,3.42385128 C3.62927108,3.66275218 3.75888088,3.88325466 3.90224036,4.08089845 C3.95981679,4.16038286 4.01955132,4.23611368 4.08130487,4.30809089 C4.20890826,4.29412741 4.33857524,4.28697486 4.46989528,4.28697486 C6.41948628,4.28697486 7.99999994,5.92513254 7.99999994,5.92513254 C7.99999994,5.92513254 9.58058339,4.28697486 11.5301046,4.28697486 C11.6622968,4.28697486 11.7928838,4.29422274 11.921307,4.30837002 C11.9830795,4.23630948 12.0428976,4.16048561 12.1005519,4.08089845 C12.2439198,3.88325466 12.3736071,3.66275218 12.4865425,3.42385128 C12.7129717,2.9459798 12.8714163,2.39625684 12.9599219,1.81503353 C13.0042445,1.5243522 13.0316059,1.22551701 13.0415174,0.92201251 C13.0464731,0.770225425 13.0471013,0.617253584 13.0428436,0.463515127 C13.038167,0.309707002 13.0300005,0.155132262 13.0121318,0 C13.110898,0.121750243 13.2029634,0.250608983 13.2922368,0.382115998 C13.3813706,0.513832061 13.4668748,0.649172063 13.5488891,0.787717862 C13.7129177,1.06487915 13.8633354,1.35493327 13.9978388,1.6580893 C14.2662174,2.26426202 14.4734518,2.92465435 14.5747307,3.64226302 C14.6250561,4.00082344 14.6480899,4.37332207 14.6364334,4.75613497 C14.6250561,5.13072433 14.5801053,5.51507043 14.4969742,5.90108913 C14.8531267,6.45157868 15.0599999,7.10758048 15.0599999,7.81180848 Z"></path>
</svg>